<?xml version="1.0" encoding="UTF-8"?>
<svg xmlns="http://www.w3.org/2000/svg" width="960" height="540" viewBox="0 0 960 540" role="img" aria-label="WS13 · Beekeeping Welcome">
  <rect width="960" height="540" fill="#243619"/>
  <rect x="0" y="0" width="18" height="540" fill="#7a9e3f"/>
  <circle cx="820" cy="90" r="70" fill="#3f5a32" opacity="0.55"/>
  <circle cx="860" cy="150" r="40" fill="#7a9e3f" opacity="0.35"/>
  <text x="56" y="78" fill="#d5e2b8" font-family="Courier New, monospace" font-size="22" letter-spacing="4">THE FIBONACCI WORKS</text>
  <text x="56" y="168" fill="#f6f8ef" font-family="Georgia, serif" font-size="54">WS13 · Beekeeping</text>
  <text x="56" y="220" fill="#7a9e3f" font-family="Courier New, monospace" font-size="28" letter-spacing="3">WELCOME</text>
  <line x1="56" y1="248" x2="420" y2="248" stroke="#7a9e3f" stroke-width="3"/>
  <g transform="translate(460,40)">
  <polygon points="317.1,179.0 317.1,201.0 298.0,212.0 278.9,201.0 278.9,179.0 298.0,168.0" fill="#3f5a32" stroke="#f6f8ef" stroke-width="2"/>
  <polygon points="293.1,220.6 293.1,242.6 274.0,253.6 254.9,242.6 254.9,220.6 274.0,209.6" fill="#7a9e3f" stroke="#f6f8ef" stroke-width="2"/>
  <polygon points="245.1,220.6 245.1,242.6 226.0,253.6 206.9,242.6 206.9,220.6 226.0,209.6" fill="#3f5a32" stroke="#f6f8ef" stroke-width="2"/>
  <polygon points="221.1,179.0 221.1,201.0 202.0,212.0 182.9,201.0 182.9,179.0 202.0,168.0" fill="#7a9e3f" stroke="#f6f8ef" stroke-width="2"/>
  <polygon points="245.1,137.4 245.1,159.4 226.0,170.4 206.9,159.4 206.9,137.4 226.0,126.4" fill="#3f5a32" stroke="#f6f8ef" stroke-width="2"/>
  <polygon points="293.1,137.4 293.1,159.4 274.0,170.4 254.9,159.4 254.9,137.4 274.0,126.4" fill="#7a9e3f" stroke="#f6f8ef" stroke-width="2"/>
  <polygon points="267.3,180.0 267.3,200.0 250.0,210.0 232.7,200.0 232.7,180.0 250.0,170.0" fill="#243619" stroke="#7a9e3f" stroke-width="2"/>
  </g>
  <text x="56" y="490" fill="#d5e2b8" font-family="Courier New, monospace" font-size="18">PLACEHOLDER · NOT A PHOTO · STREAM COLOUR</text>
</svg>
