<?xml version="1.0" encoding="UTF-8"?>
<svg xmlns="http://www.w3.org/2000/svg" width="960" height="540" viewBox="0 0 960 540" role="img" aria-label="WS13 · Beekeeping Discussion">
  <rect width="960" height="540" fill="#243619"/>
  <rect x="0" y="0" width="18" height="540" fill="#7a9e3f"/>
  <circle cx="820" cy="90" r="88" fill="#3f5a32" opacity="0.55"/>
  <circle cx="860" cy="150" r="40" fill="#7a9e3f" opacity="0.35"/>
  <text x="56" y="78" fill="#d5e2b8" font-family="Courier New, monospace" font-size="22" letter-spacing="4">THE FIBONACCI WORKS</text>
  <text x="56" y="168" fill="#f6f8ef" font-family="Georgia, serif" font-size="54">WS13 · Beekeeping</text>
  <text x="56" y="220" fill="#7a9e3f" font-family="Courier New, monospace" font-size="28" letter-spacing="3">DISCUSSION</text>
  <line x1="56" y1="248" x2="420" y2="248" stroke="#7a9e3f" stroke-width="3"/>
  <g transform="translate(460,40)">
  <polygon points="306.5,209.0 306.5,231.0 287.5,242.0 268.4,231.0 268.4,209.0 287.5,198.0" fill="#3f5a32" stroke="#f6f8ef" stroke-width="2"/>
  <polygon points="261.8,226.5 261.8,248.5 242.8,259.5 223.7,248.5 223.7,226.5 242.8,215.5" fill="#7a9e3f" stroke="#f6f8ef" stroke-width="2"/>
  <polygon points="224.3,196.5 224.3,218.5 205.3,229.5 186.2,218.5 186.2,196.5 205.3,185.5" fill="#3f5a32" stroke="#f6f8ef" stroke-width="2"/>
  <polygon points="231.6,149.0 231.6,171.0 212.5,182.0 193.5,171.0 193.5,149.0 212.5,138.0" fill="#7a9e3f" stroke="#f6f8ef" stroke-width="2"/>
  <polygon points="276.3,131.5 276.3,153.5 257.2,164.5 238.2,153.5 238.2,131.5 257.2,120.5" fill="#3f5a32" stroke="#f6f8ef" stroke-width="2"/>
  <polygon points="313.8,161.5 313.8,183.5 294.7,194.5 275.7,183.5 275.7,161.5 294.7,150.5" fill="#7a9e3f" stroke="#f6f8ef" stroke-width="2"/>
  <polygon points="267.3,180.0 267.3,200.0 250.0,210.0 232.7,200.0 232.7,180.0 250.0,170.0" fill="#243619" stroke="#7a9e3f" stroke-width="2"/>
  </g>
  <text x="56" y="490" fill="#d5e2b8" font-family="Courier New, monospace" font-size="18">PLACEHOLDER · NOT A PHOTO · STREAM COLOUR</text>
</svg>
