<?xml version="1.0" encoding="UTF-8"?>
<svg xmlns="http://www.w3.org/2000/svg" width="960" height="540" viewBox="0 0 960 540" role="img" aria-label="WS11 Local voice — Onward">
  <defs>
    <linearGradient id="sky" x1="0" y1="0" x2="0.2" y2="1">
      <stop offset="0" stop-color="#241833"/>
      <stop offset="0.38" stop-color="#143f3c"/>
      <stop offset="0.72" stop-color="#1f6e6a"/>
      <stop offset="1" stop-color="#f3e6cf"/>
    </linearGradient>
    <radialGradient id="lantern" cx="72%" cy="38%" r="48%">
      <stop offset="0" stop-color="#fff6e2" stop-opacity="0.85"/>
      <stop offset="0.4" stop-color="#5eb0d4" stop-opacity="0.28"/>
      <stop offset="1" stop-color="#5eb0d4" stop-opacity="0"/>
    </radialGradient>
  </defs>
  <rect width="960" height="540" fill="url(#sky)"/>
  <rect width="960" height="540" fill="url(#lantern)"/>
  
    <circle cx="800" cy="78" r="50" fill="#c8b6ff" opacity="0.2"/>
    <circle cx="800" cy="78" r="28" fill="#f7f1ff" opacity="0.9"/>
    <circle cx="806.16" cy="74.64" r="19.599999999999998" fill="#fffaf3"/>
  <path d="M0 396 C 180 356, 340 416, 520 386 S 820 416, 960 376 V 540 H 0 Z" fill="#143f3c" opacity="0.55"/>
  <path d="M0 460 C 220 450, 400 500, 640 470 S 900 500, 960 470 V 540 H 0 Z" fill="#143f3c" opacity="0.85"/>
  <path d="M78 470 c 18-8 28-28 18-44 -12-18 -40-16 -52 2 -16 24 8 52 40 52 40 0 68-36 60-74 -10-46-62-66-104-46" fill="none" stroke="#efe8ff" stroke-width="1.4" opacity="0.35"/>
  
      <path d="M70 460 C 260 430, 460 390, 760 300" fill="none" stroke="#fff6e4" stroke-width="5" stroke-linecap="round" stroke-dasharray="1 16" opacity="0.75"/>
      <circle cx="770" cy="292" r="10" fill="#fff1c9"/>
      <circle cx="800" cy="250" r="22" fill="#fff6e0" opacity="0.9"/>
      <circle cx="800" cy="250" r="10" fill="#5eb0d4"/>
  <g transform="translate(640 168) scale(0.62)">
    <rect x="36" y="48" width="120" height="100" rx="8" fill="#f7f3ea" stroke="#5eb0d4" stroke-width="3"/>
    <circle cx="70" cy="84" r="16" fill="#5eb0d4" opacity="0.85"/>
    <path d="M96 76 H 140 M96 92 H 128" stroke="#1f6e6a" stroke-width="3" stroke-linecap="round"/>
    <path d="M150 70 H 214 V 130 H 168 L 150 112 Z" fill="#e7f4fb" stroke="#5eb0d4" stroke-width="3"/>
    <path d="M166 92 H 200 M166 108 H 188" stroke="#245a78" stroke-width="2" stroke-linecap="round"/>
    <circle cx="196" cy="56" r="8" fill="#fff4cc"/></g>
  <text x="56" y="78" fill="#f6f1e6" font-family="Georgia, Palatino, serif" font-size="15" letter-spacing="3.5" opacity="0.82">THE FIBONACCI WORKS</text>
  <text x="56" y="136" fill="#fffaf3" font-family="Georgia, Palatino, serif" font-size="48">Onward</text>
  <text x="58" y="176" fill="#5eb0d4" font-family="Georgia, Palatino, serif" font-size="20">WS11 · Local voice</text>
  <text x="58" y="210" fill="#f6f1e6" font-family="Georgia, Palatino, serif" font-size="16" opacity="0.78">The path keeps going</text>
</svg>
