<?xml version="1.0" encoding="UTF-8"?>
<svg xmlns="http://www.w3.org/2000/svg" width="960" height="540" viewBox="0 0 960 540" role="img" aria-label="WS13 Bees — Onward">
  <defs>
    <linearGradient id="sky" x1="0" y1="0" x2="0.2" y2="1">
      <stop offset="0" stop-color="#241833"/>
      <stop offset="0.38" stop-color="#243619"/>
      <stop offset="0.72" stop-color="#3f5a32"/>
      <stop offset="1" stop-color="#f3e6cf"/>
    </linearGradient>
    <radialGradient id="lantern" cx="72%" cy="38%" r="48%">
      <stop offset="0" stop-color="#fff6e2" stop-opacity="0.85"/>
      <stop offset="0.4" stop-color="#d4a84a" stop-opacity="0.28"/>
      <stop offset="1" stop-color="#d4a84a" stop-opacity="0"/>
    </radialGradient>
  </defs>
  <rect width="960" height="540" fill="url(#sky)"/>
  <rect width="960" height="540" fill="url(#lantern)"/>
  
    <circle cx="800" cy="78" r="50" fill="#c8b6ff" opacity="0.2"/>
    <circle cx="800" cy="78" r="28" fill="#f7f1ff" opacity="0.9"/>
    <circle cx="806.16" cy="74.64" r="19.599999999999998" fill="#fffaf3"/>
  <path d="M0 408 C 180 340, 340 428, 520 370 S 820 428, 960 360 V 540 H 0 Z" fill="#243619" opacity="0.55"/>
  <path d="M0 460 C 220 450, 400 500, 640 470 S 900 500, 960 470 V 540 H 0 Z" fill="#243619" opacity="0.85"/>
  <path d="M78 470 c 18-8 28-28 18-44 -12-18 -40-16 -52 2 -16 24 8 52 40 52 40 0 68-36 60-74 -10-46-62-66-104-46" fill="none" stroke="#efe8ff" stroke-width="1.4" opacity="0.35"/>
  
      <path d="M70 460 C 260 430, 460 390, 760 300" fill="none" stroke="#fff6e4" stroke-width="5" stroke-linecap="round" stroke-dasharray="1 16" opacity="0.75"/>
      <circle cx="770" cy="292" r="10" fill="#fff1c9"/>
      <circle cx="800" cy="250" r="22" fill="#fff6e0" opacity="0.9"/>
      <circle cx="800" cy="250" r="10" fill="#d4a84a"/>
  <g transform="translate(640 168) scale(0.62)">
    <path d="M70 150 H 180 V 90 H 70 Z" fill="#f3e2c4" stroke="#d4a84a" stroke-width="3"/>
    <path d="M78 90 V 70 H 172 V 90" fill="#fffaf2" stroke="#d4a84a" stroke-width="3"/>
    <path d="M104 70 V 150 M138 70 V 150 M70 118 H 180" stroke="#d4a84a" stroke-width="2" opacity="0.7"/>
    <ellipse cx="196" cy="70" rx="22" ry="14" fill="#f6e27a" stroke="#6b5a2b" stroke-width="2"/>
    <ellipse cx="186" cy="62" rx="12" ry="7" fill="#fffaf2" opacity="0.8"/>
    <ellipse cx="206" cy="62" rx="12" ry="7" fill="#fffaf2" opacity="0.8"/>
    <circle cx="196" cy="72" r="3" fill="#3a3015"/>
    <path d="M40 120 H 70" stroke="#d4a84a" stroke-width="3"/></g>
  <text x="56" y="78" fill="#f6f1e6" font-family="Georgia, Palatino, serif" font-size="15" letter-spacing="3.5" opacity="0.82">THE FIBONACCI WORKS</text>
  <text x="56" y="136" fill="#fffaf3" font-family="Georgia, Palatino, serif" font-size="48">Onward</text>
  <text x="58" y="176" fill="#d4a84a" font-family="Georgia, Palatino, serif" font-size="20">WS13 · Bees</text>
  <text x="58" y="210" fill="#f6f1e6" font-family="Georgia, Palatino, serif" font-size="16" opacity="0.78">The path keeps going</text>
</svg>
